Coordinates
version=1
nRows=39
nColumns=6
inDegrees=yes

Units are S.I. units (second, meters, Newtons, ...)
If the header above contains a line with 'inDegrees', this indicates whether rotational values are in degrees (yes) or radians (no).

endheader
time	bJoint_3	bJoint_4	baseangle	kneeangle	bladeangle
      9.00000000	      0.00000000	      0.00000000	    -27.50704313	     -6.40843668	     33.91548209
      9.02000000	      0.00000000	     -0.00000000	    -26.63202207	     -7.60395220	     34.23597410
      9.04000000	      0.00000000	     -0.00000000	    -25.75546924	     -8.79309097	     34.54855993
      9.06000000	      0.00000000	     -0.00000000	    -24.87935992	     -9.97300091	     34.85236053
      9.08000000	      0.00000000	     -0.00000000	    -24.00566589	    -11.14091114	     35.14657674
      9.10000000	      0.00000000	     -0.00000000	    -23.12919909	    -12.30359559	     35.43281177
      9.12000000	      0.00000000	     -0.00000000	    -22.25193446	    -13.45822201	     35.71016835
      9.14000000	      0.00000000	     -0.00000000	    -21.37585206	    -14.60203801	     35.97789833
      9.16000000	      0.00000000	     -0.00000000	    -20.49574820	    -15.74163995	     36.23739325
      9.18000000	     -0.00000000	     -0.00000000	    -19.61359361	    -16.87422692	     36.48782227
      9.20000000	     -0.00000000	     -0.00000000	    -18.73137536	    -17.99706427	     36.72844074
      9.22000000	      0.00000000	     -0.00000000	    -17.84384021	    -19.11660077	     36.96044225
      9.24000000	      0.00000000	     -0.00000000	    -16.95295318	    -20.23006629	     37.18304880
      9.26000000	      0.00000000	     -0.00000000	    -16.06070703	    -21.33474328	     37.39547615
      9.28000000	      0.00000000	     -0.00000000	    -15.16176370	    -22.43696010	     37.59874881
      9.30000000	      0.00000000	     -0.00000000	    -14.25807974	    -23.53397481	     37.79207936
      9.32000000	      0.00000000	     -0.00000000	    -13.35164861	    -24.62309702	     37.97477061
      9.34000000	      0.00000000	     -0.00000000	    -12.43701097	    -25.71055229	     38.14759146
      9.36000000	      0.00000000	     -0.00000000	    -11.51613659	    -26.79363165	     38.31046925
      9.38000000	      0.00000000	     -0.00000000	    -10.59096693	    -27.86966231	     38.46135781
      9.40000000	     -0.00000000	      0.00000000	     -9.65590306	    -28.94479385	     38.60147288
      9.42000000	     -0.00000000	      0.00000000	     -8.71286457	    -30.01634736	     38.72998768
      9.44000000	      0.00000000	     -0.00000000	     -7.76379704	    -31.08168704	     38.84552741
      9.46000000	     -0.00000000	      0.00000000	     -6.80296767	    -32.14688759	     38.95044757
      9.48000000	     -0.00000000	      0.00000000	     -5.83216221	    -33.20931537	     39.04186444
      9.50000000	      0.00000000	     -0.00000000	     -4.85338553	    -34.26634998	     39.11989609
      9.52000000	     -0.00000000	      0.00000000	     -3.86054513	    -35.32403728	     39.18480525
      9.54000000	     -0.00000000	      0.00000000	     -2.85545108	    -36.37977533	     39.23527394
      9.56000000	     -0.00000000	      0.00000000	     -1.84005395	    -37.43097538	     39.27091887
      9.58000000	      0.00000000	     -0.00000000	     -0.80789221	    -38.48367852	     39.29151525
      9.60000000	      0.00000000	     -0.00000000	      0.23926234	    -39.53530824	     39.29597434
      9.62000000	      0.00000000	     -0.00000000	      1.29954156	    -40.58331728	     39.28358082
      9.64000000	      0.00000000	     -0.00000000	      2.37985223	    -41.63375792	     39.25360278
      9.66000000	      0.00000000	     -0.00000000	      3.47852389	    -42.68410708	     39.20521467
      9.68000000	      0.00000000	     -0.00000000	      4.59377816	    -43.73185884	     39.13770347
      9.70000000	      0.00000000	     -0.00000000	      5.73308414	    -44.78311033	     39.05001565
      9.72000000	      0.00000000	     -0.00000000	      6.89498684	    -45.83540473	     38.94041029
      9.74000000	      0.00000000	     -0.00000000	      8.07784280	    -46.88629062	     38.80844375
      9.76000000	      0.00000000	     -0.00000000	      9.28990845	    -47.94196618	     38.65199218
